<svg width="262" height="23" viewBox="0 0 262 23" fill="none" xmlns="http://www.w3.org/2000/svg">
<path d="M14.29 17.98V22H0.4V1.21H5.08V17.98H14.29ZM25.4413 22.42C23.9813 22.42 22.7213 22.22 21.6613 21.82C20.6013 21.4 19.7213 20.83 19.0213 20.11C18.3413 19.37 17.8313 18.5 17.4913 17.5C17.1713 16.48 17.0113 15.36 17.0113 14.14V1.21H21.6913V13.75C21.6913 14.59 21.7813 15.31 21.9613 15.91C22.1613 16.49 22.4213 16.97 22.7413 17.35C23.0813 17.71 23.4813 17.97 23.9413 18.13C24.4213 18.29 24.9413 18.37 25.5013 18.37C26.6413 18.37 27.5613 18.02 28.2613 17.32C28.9813 16.62 29.3413 15.43 29.3413 13.75V1.21H34.0213V14.14C34.0213 15.36 33.8513 16.48 33.5113 17.5C33.1713 18.52 32.6513 19.4 31.9513 20.14C31.2513 20.86 30.3613 21.42 29.2813 21.82C28.2013 22.22 26.9213 22.42 25.4413 22.42ZM48.3023 22.42C44.9223 22.42 42.3423 21.48 40.5623 19.6C38.8023 17.72 37.9223 15.05 37.9223 11.59C37.9223 9.87 38.1923 8.34 38.7323 7C39.2723 5.64 40.0123 4.5 40.9523 3.58C41.8923 2.64 43.0123 1.93 44.3123 1.45C45.6123 0.969998 47.0223 0.729998 48.5423 0.729998C49.4223 0.729998 50.2223 0.799999 50.9423 0.939999C51.6623 1.06 52.2923 1.21 52.8323 1.39C53.3723 1.55 53.8223 1.72 54.1823 1.9C54.5423 2.08 54.8023 2.22 54.9623 2.32L53.6123 6.1C52.9723 5.76 52.2223 5.47 51.3623 5.23C50.5223 4.99 49.5623 4.87 48.4823 4.87C47.7623 4.87 47.0523 4.99 46.3523 5.23C45.6723 5.47 45.0623 5.86 44.5223 6.4C44.0023 6.92 43.5823 7.6 43.2623 8.44C42.9423 9.28 42.7823 10.3 42.7823 11.5C42.7823 12.46 42.8823 13.36 43.0823 14.2C43.3023 15.02 43.6423 15.73 44.1023 16.33C44.5823 16.93 45.2023 17.41 45.9623 17.77C46.7223 18.11 47.6423 18.28 48.7223 18.28C49.4023 18.28 50.0123 18.24 50.5523 18.16C51.0923 18.08 51.5723 17.99 51.9923 17.89C52.4123 17.77 52.7823 17.64 53.1023 17.5C53.4223 17.36 53.7123 17.23 53.9723 17.11L55.2623 20.86C54.6023 21.26 53.6723 21.62 52.4723 21.94C51.2723 22.26 49.8823 22.42 48.3023 22.42ZM73.345 22C73.125 21.28 72.875 20.54 72.595 19.78C72.335 19.02 72.075 18.26 71.815 17.5H63.715C63.455 18.26 63.185 19.02 62.905 19.78C62.645 20.54 62.405 21.28 62.185 22H57.325C58.105 19.76 58.845 17.69 59.545 15.79C60.245 13.89 60.925 12.1 61.585 10.42C62.265 8.74 62.925 7.15 63.565 5.65C64.225 4.13 64.905 2.65 65.605 1.21H70.075C70.755 2.65 71.425 4.13 72.085 5.65C72.745 7.15 73.405 8.74 74.065 10.42C74.745 12.1 75.435 13.89 76.135 15.79C76.835 17.69 77.575 19.76 78.355 22H73.345ZM67.735 5.92C67.635 6.22 67.485 6.63 67.285 7.15C67.085 7.67 66.855 8.27 66.595 8.95C66.335 9.63 66.045 10.38 65.725 11.2C65.425 12.02 65.115 12.88 64.795 13.78H70.705C70.385 12.88 70.075 12.02 69.775 11.2C69.475 10.38 69.185 9.63 68.905 8.95C68.645 8.27 68.415 7.67 68.215 7.15C68.015 6.63 67.855 6.22 67.735 5.92ZM87.5727 18.43C88.2327 18.43 88.7727 18.38 89.1927 18.28C89.6327 18.16 89.9827 18.01 90.2427 17.83C90.5027 17.63 90.6827 17.4 90.7827 17.14C90.8827 16.88 90.9327 16.59 90.9327 16.27C90.9327 15.59 90.6127 15.03 89.9727 14.59C89.3327 14.13 88.2327 13.64 86.6727 13.12C85.9927 12.88 85.3127 12.61 84.6327 12.31C83.9527 11.99 83.3427 11.6 82.8027 11.14C82.2627 10.66 81.8227 10.09 81.4827 9.43C81.1427 8.75 80.9727 7.93 80.9727 6.97C80.9727 6.01 81.1527 5.15 81.5127 4.39C81.8727 3.61 82.3827 2.95 83.0427 2.41C83.7027 1.87 84.5027 1.46 85.4427 1.18C86.3827 0.879999 87.4427 0.729998 88.6227 0.729998C90.0227 0.729998 91.2327 0.879999 92.2527 1.18C93.2727 1.48 94.1127 1.81 94.7727 2.17L93.4227 5.86C92.8427 5.56 92.1927 5.3 91.4727 5.08C90.7727 4.84 89.9227 4.72 88.9227 4.72C87.8027 4.72 86.9927 4.88 86.4927 5.2C86.0127 5.5 85.7727 5.97 85.7727 6.61C85.7727 6.99 85.8627 7.31 86.0427 7.57C86.2227 7.83 86.4727 8.07 86.7927 8.29C87.1327 8.49 87.5127 8.68 87.9327 8.86C88.3727 9.02 88.8527 9.19 89.3727 9.37C90.4527 9.77 91.3927 10.17 92.1927 10.57C92.9927 10.95 93.6527 11.4 94.1727 11.92C94.7127 12.44 95.1127 13.05 95.3727 13.75C95.6327 14.45 95.7627 15.3 95.7627 16.3C95.7627 18.24 95.0827 19.75 93.7227 20.83C92.3627 21.89 90.3127 22.42 87.5727 22.42C86.6527 22.42 85.8227 22.36 85.0827 22.24C84.3427 22.14 83.6827 22.01 83.1027 21.85C82.5427 21.69 82.0527 21.52 81.6327 21.34C81.2327 21.16 80.8927 20.99 80.6127 20.83L81.9327 17.11C82.5527 17.45 83.3127 17.76 84.2127 18.04C85.1327 18.3 86.2527 18.43 87.5727 18.43ZM112.691 1.21C113.051 1.87 113.461 2.69 113.921 3.67C114.401 4.63 114.891 5.68 115.391 6.82C115.911 7.94 116.421 9.09 116.921 10.27C117.421 11.45 117.891 12.56 118.331 13.6C118.771 12.56 119.241 11.45 119.741 10.27C120.241 9.09 120.741 7.94 121.241 6.82C121.761 5.68 122.251 4.63 122.711 3.67C123.191 2.69 123.611 1.87 123.971 1.21H128.231C128.431 2.59 128.611 4.14 128.771 5.86C128.951 7.56 129.101 9.34 129.221 11.2C129.361 13.04 129.481 14.89 129.581 16.75C129.701 18.61 129.801 20.36 129.881 22H125.321C125.261 19.98 125.181 17.78 125.081 15.4C124.981 13.02 124.831 10.62 124.631 8.2C124.271 9.04 123.871 9.97 123.431 10.99C122.991 12.01 122.551 13.03 122.111 14.05C121.691 15.07 121.281 16.05 120.881 16.99C120.481 17.91 120.141 18.7 119.861 19.36H116.591C116.311 18.7 115.971 17.91 115.571 16.99C115.171 16.05 114.751 15.07 114.311 14.05C113.891 13.03 113.461 12.01 113.021 10.99C112.581 9.97 112.181 9.04 111.821 8.2C111.621 10.62 111.471 13.02 111.371 15.4C111.271 17.78 111.191 19.98 111.131 22H106.571C106.651 20.36 106.741 18.61 106.841 16.75C106.961 14.89 107.081 13.04 107.201 11.2C107.341 9.34 107.491 7.56 107.651 5.86C107.831 4.14 108.021 2.59 108.221 1.21H112.691ZM138.325 11.59C138.325 12.61 138.445 13.53 138.685 14.35C138.945 15.17 139.305 15.88 139.765 16.48C140.245 17.06 140.825 17.51 141.505 17.83C142.185 18.15 142.965 18.31 143.845 18.31C144.705 18.31 145.475 18.15 146.155 17.83C146.855 17.51 147.435 17.06 147.895 16.48C148.375 15.88 148.735 15.17 148.975 14.35C149.235 13.53 149.365 12.61 149.365 11.59C149.365 10.57 149.235 9.65 148.975 8.83C148.735 7.99 148.375 7.28 147.895 6.7C147.435 6.1 146.855 5.64 146.155 5.32C145.475 5 144.705 4.84 143.845 4.84C142.965 4.84 142.185 5.01 141.505 5.35C140.825 5.67 140.245 6.13 139.765 6.73C139.305 7.31 138.945 8.02 138.685 8.86C138.445 9.68 138.325 10.59 138.325 11.59ZM154.195 11.59C154.195 13.37 153.925 14.94 153.385 16.3C152.865 17.64 152.145 18.77 151.225 19.69C150.305 20.59 149.205 21.27 147.925 21.73C146.665 22.19 145.305 22.42 143.845 22.42C142.425 22.42 141.085 22.19 139.825 21.73C138.565 21.27 137.465 20.59 136.525 19.69C135.585 18.77 134.845 17.64 134.305 16.3C133.765 14.94 133.495 13.37 133.495 11.59C133.495 9.81 133.775 8.25 134.335 6.91C134.895 5.55 135.645 4.41 136.585 3.49C137.545 2.57 138.645 1.88 139.885 1.42C141.145 0.959998 142.465 0.729998 143.845 0.729998C145.265 0.729998 146.605 0.959998 147.865 1.42C149.125 1.88 150.225 2.57 151.165 3.49C152.105 4.41 152.845 5.55 153.385 6.91C153.925 8.25 154.195 9.81 154.195 11.59ZM172.346 22C171.006 19.62 169.556 17.27 167.996 14.95C166.436 12.63 164.776 10.44 163.016 8.38V22H158.396V1.21H162.206C162.866 1.87 163.596 2.68 164.396 3.64C165.196 4.6 166.006 5.63 166.826 6.73C167.666 7.81 168.496 8.94 169.316 10.12C170.136 11.28 170.906 12.4 171.626 13.48V1.21H176.276V22H172.346ZM196.791 1.21V5.2H190.521V22H185.841V5.2H179.571V1.21H196.791ZM211.558 22C211.338 21.28 211.088 20.54 210.808 19.78C210.548 19.02 210.288 18.26 210.028 17.5H201.928C201.668 18.26 201.398 19.02 201.118 19.78C200.858 20.54 200.618 21.28 200.398 22H195.538C196.318 19.76 197.058 17.69 197.758 15.79C198.458 13.89 199.138 12.1 199.798 10.42C200.478 8.74 201.138 7.15 201.778 5.65C202.438 4.13 203.118 2.65 203.818 1.21H208.288C208.968 2.65 209.638 4.13 210.298 5.65C210.958 7.15 211.618 8.74 212.278 10.42C212.958 12.1 213.648 13.89 214.348 15.79C215.048 17.69 215.788 19.76 216.568 22H211.558ZM205.948 5.92C205.848 6.22 205.698 6.63 205.498 7.15C205.298 7.67 205.068 8.27 204.808 8.95C204.548 9.63 204.258 10.38 203.938 11.2C203.638 12.02 203.328 12.88 203.008 13.78H208.918C208.598 12.88 208.288 12.02 207.988 11.2C207.688 10.38 207.398 9.63 207.118 8.95C206.858 8.27 206.628 7.67 206.428 7.15C206.228 6.63 206.068 6.22 205.948 5.92ZM233.509 22C232.169 19.62 230.719 17.27 229.159 14.95C227.599 12.63 225.939 10.44 224.179 8.38V22H219.559V1.21H223.369C224.029 1.87 224.759 2.68 225.559 3.64C226.359 4.6 227.169 5.63 227.989 6.73C228.829 7.81 229.659 8.94 230.479 10.12C231.299 11.28 232.069 12.4 232.789 13.48V1.21H237.439V22H233.509ZM256.455 22C256.235 21.28 255.985 20.54 255.705 19.78C255.445 19.02 255.185 18.26 254.925 17.5H246.825C246.565 18.26 246.295 19.02 246.015 19.78C245.755 20.54 245.515 21.28 245.295 22H240.435C241.215 19.76 241.955 17.69 242.655 15.79C243.355 13.89 244.035 12.1 244.695 10.42C245.375 8.74 246.035 7.15 246.675 5.65C247.335 4.13 248.015 2.65 248.715 1.21H253.185C253.865 2.65 254.535 4.13 255.195 5.65C255.855 7.15 256.515 8.74 257.175 10.42C257.855 12.1 258.545 13.89 259.245 15.79C259.945 17.69 260.685 19.76 261.465 22H256.455ZM250.845 5.92C250.745 6.22 250.595 6.63 250.395 7.15C250.195 7.67 249.965 8.27 249.705 8.95C249.445 9.63 249.155 10.38 248.835 11.2C248.535 12.02 248.225 12.88 247.905 13.78H253.815C253.495 12.88 253.185 12.02 252.885 11.2C252.585 10.38 252.295 9.63 252.015 8.95C251.755 8.27 251.525 7.67 251.325 7.15C251.125 6.63 250.965 6.22 250.845 5.92Z" fill="white"/>
</svg>
